<svg width="65" height="57" fill="none" xmlns="http://www.w3.org/2000/svg"><path d="M61.5082 56.8862H3.49118C1.56608 56.8862 0 55.344 0 53.4483c0-1.1207.8601-2.0472 1.96433-2.1732.26076-1.9904 1.35292-3.7275 2.92154-4.862-1.17875-1.6817-2.14917-4.4093-2.14917-5.8493 0-2.127 1.79967-4.2802 5.23943-4.2802.52584 0 .95214.4198.95214.9377 0 .5178-.4263.9376-.95214.9376-2.29148 0-3.33515 1.2466-3.33515 2.4049 0 1.1324.95214 3.6643 1.92294 4.9424.81478-.311 1.70014-.4817 2.62511-.4817 2.70907 0 5.07747 1.4639 6.33247 3.6305 1.2551-2.1666 3.6235-3.6305 6.3325-3.6305 2.6247 0 4.9299 1.3743 6.2123 3.4304 1.0558-1.9409 3.0946-2.9739 5.9893-2.9739.526 0 .9521.4198.9521.9376 0 2.078-.5575 3.7081-1.6232 4.8419h6.9274c-.5603-.5461-1.0765-1.2033-1.5329-1.9611-1.552-2.5769-2.3722-6.1532-2.3722-10.3425 0-3.8528.5955-7.7976 1.677-11.1078.1612-.493.6977-.7636 1.198-.6054.5006.1586.7758.6868.6149 1.1798-1.0225 3.1295-1.5855 6.8704-1.5855 10.5334 0 5.9644 2.1735 12.3035 6.2017 12.3035h4.416c4.0282 0 6.2019-6.3391 6.2019-12.3035 0-4.473-.8295-8.986-2.276-12.3819-1.1049-2.5941-3.0658-5.6863-6.1338-5.6863-2.5979 0-4.379 2.2792-5.4158 4.1913-.2477.4567-.8241.6296-1.2884.3855-.4638-.2439-.6391-.812-.3914-1.2687.7033-1.2969 1.4965-2.3599 2.3648-3.1784-4.6853.2698-8.6629.9621-12.0078 2.0909l1.4082 1.3868.3424-.3371c.3719-.366.9748-.3661 1.3466 0a.9276.9276 0 010 1.326l-.3424.3371 2.4206 2.3836c.3718.3662.3718.9599 0 1.3259-.372.3662-.9747.3662-1.3466 0l-2.4204-2.3835-4.0772 4.015 4.0773 4.015 1.1509-1.1334c.3717-.3662.9746-.3662 1.3466 0 .3719.3662.3719.9599 0 1.3259l-1.1511 1.1336 1.6608 1.6353c.3719.3662.3719.9599 0 1.3259-.3719.3661-.9747.3662-1.3466 0l-1.6606-1.6353-1.8536 1.8252c-.3719.3662-.9748.3662-1.3465 0-.3718-.3661-.3718-.9599 0-1.3259l1.8535-1.8254-4.0772-4.015-4.0773 4.0152 2.4205 2.3835a.9276.9276 0 010 1.326c-.3719.3661-.9748.3661-1.3465 0l-2.4204-2.3836-3.9458 3.8856c-.3719.3662-.9748.3662-1.3465 0a.92749.92749 0 010-1.3259l3.9458-3.8856-2.6869-2.646c-1.2391 1.4687-2.5689 2.7536-4.3776 3.5235-.4827.2054-1.043-.0135-1.2517-.4889-.2086-.4753.0135-1.0272.4963-1.2326 2.0136-.8569 3.3773-2.5925 4.9564-4.6023.888-1.1302 1.8488-2.3531 3.0364-3.5719-3.0419-.6799-4.6878-2.928-4.6878-6.4985 0-.5178.4263-.9376.9521-.9376 3.7332 0 6.0429 1.7184 6.6564 4.8864 4.4228-3.2461 11.4551-5.9228 24.4308-5.9228 3.2569 0 5.9852 2.3639 7.89 6.8361 1.5405 3.617 2.4241 8.3944 2.4241 13.1073 0 2.2204-.2304 4.2689-.6782 6.0874 3.4511.2529 6.2401 2.8841 6.6785 6.2306C64.1399 51.4009 65 52.3274 65 53.448c-.0006 1.896-1.5667 3.4382-3.4918 3.4382zM2.22166 53.1357c-.17494 0-.31738.1403-.31738.3126 0 .8617.71182 1.5627 1.5869 1.5627H61.5082c.8751 0 1.5869-.701 1.5869-1.5627 0-.1723-.1423-.3126-.3174-.3126H23.4649c-.5258 0-.9521-.4198-.9521-.9376s.4263-.9376.9521-.9376h3.685c-.4508-2.4758-2.654-4.3607-5.2959-4.3607-2.6419 0-4.8452 1.8849-5.296 4.3607h3.0983c.5259 0 .9522.4198.9522.9376s-.4263.9376-.9522.9376H2.22166zm50.90794-1.8752h7.9769c-.4509-2.4758-2.6542-4.3607-5.296-4.3607h-.0153c-.3185.8731-.6966 1.6757-1.1326 2.3997-.4564.7577-.9727 1.4149-1.533 1.961zm-49.23662 0H14.485c-.4508-2.4758-2.6541-4.3607-5.29597-4.3607-2.64199 0-4.84524 1.8849-5.29605 4.3607zm29.15772-3.8523c-2.3475.2587-3.5967 1.4887-3.8594 3.8004 2.3475-.2588 3.5966-1.4887 3.8594-3.8004zM17.7014 32.3804l2.8413 2.798 4.0773-4.0152-3.1457-3.0978c-1.4653 1.378-2.5879 2.8069-3.6355 4.1403-.046.0584-.0917.1165-.1374.1747zm5.2097-5.5519l3.0554 3.0088 4.0772-4.015-2.0078-1.9771c-.6501.2745-1.2734.5685-1.8697.8818-1.245.6543-2.315 1.3632-3.2551 2.1015zm-6.2728-4.8513c.2627 2.3117 1.5118 3.5418 3.8592 3.8004-.2628-2.3117-1.5118-3.5417-3.8592-3.8004zm30.0824 21.7272c-1.6017 0-2.8564-1.6475-2.8564-3.7505 0-2.1031 1.2547-3.7505 2.8564-3.7505 1.6018 0 2.8564 1.6474 2.8564 3.7505 0 2.103-1.2546 3.7505-2.8564 3.7505zm0-5.6258c-.3882 0-.9521.7305-.9521 1.8753 0 1.1447.5639 1.8752.9521 1.8752s.9521-.7305.9521-1.8752c0-1.1448-.564-1.8753-.9521-1.8753zm-2.2875-20.9402c-.2438 0-.4874-.0916-.6734-.2747-2.9328-2.8883-2.9328-6.0694 0-8.95756 2.1843-2.15104 2.1843-4.15468 0-6.30559a.92751.92751 0 010-1.32592c.372-.36617.9747-.36617 1.3466 0 2.933 2.88826 2.933 6.06943 0 8.95756-2.1843 2.15101-2.1843 4.15451 0 6.30561a.92749.92749 0 010 1.3259c-.1859.1831-.4296.2747-.6732.2747zm-11.4257 0c-.2438 0-.4874-.0916-.6732-.2747-2.933-2.8883-2.933-6.0694 0-8.95756 2.1843-2.15104 2.1843-4.15468 0-6.30559a.92734.92734 0 010-1.32592c.3717-.36617.9746-.36617 1.3465 0 2.933 2.88826 2.933 6.06943 0 8.95756-2.1843 2.15101-2.1843 4.15451 0 6.30561a.92731.92731 0 010 1.3259c-.1859.1831-.4297.2747-.6733.2747zm-11.4257 0c-.2436 0-.4873-.0916-.6732-.2747-2.933-2.8883-2.933-6.0694 0-8.95756 2.1843-2.15104 2.1843-4.15468 0-6.30559a.92751.92751 0 010-1.32592c.3718-.36617.9747-.36617 1.3464 0 2.933 2.88826 2.933 6.06943 0 8.95756-2.1842 2.15101-2.1842 4.15451 0 6.30561a.92731.92731 0 010 1.3259c-.1858.1831-.4296.2747-.6732.2747z" fill="#BDA180"/></svg>